<?xml version="1.0" ?><!DOCTYPE svg  PUBLIC '-//W3C//DTD SVG 1.1//EN'  'http://www.w3.org/Graphics/SVG/1.1/DTD/svg11.dtd'><svg enable-background="new 0 0 128 128" id="Слой_1" version="1.1" viewBox="0 0 128 128" xml:space="preserve" xmlns="http://www.w3.org/2000/svg" xmlns:xlink="http://www.w3.org/1999/xlink"><g><polyline fill="#BEBFCC" points="72.3,44 19,44 19,64 73.3,64  "/><path d="M119,119H31c-2.8,0-5-2.2-5-5V79c0-2.8,2.2-5,5-5h15c11,0,20-9,20-20V39c0-2.8,2.2-5,5-5h33   c11,0,20,9,20,20v60C124,116.8,121.8,119,119,119z" fill="#908F9E"/><path d="M37,74h-6c-2.8,0-5,2.2-5,5v35c0,2.8,2.2,5,5,5h1V79C32,76.2,34.2,74,37,74z" fill="#FFFFFF"/><path d="M72,54V39c0-2.8,2.2-5,5-5h-6c-2.8,0-5,2.2-5,5v15c0,11-9,20-20,20h10C67,74,72,65,72,54z" fill="#FFFFFF"/><path d="M5,72h9c2.8,0,5-2.2,5-5V41c0-2.8-2.2-5-5-5H5c-0.6,0-1,0.4-1,1v34C4,71.6,4.4,72,5,72z" fill="#BEBFCC"/><path d="M9,71V37c0-0.6,0.4-1,1-1H5c-0.6,0-1,0.4-1,1v34c0,0.6,0.4,1,1,1h5C9.4,72,9,71.6,9,71z" fill="#FFFFFF"/><path d="M33,44L33,44c4.4,4.4,11.6,4.4,16,0l0,0V14H33V44z" fill="#BEBFCC"/><path d="M38,14h-5v30c2.9,2.8,6.8,3.9,10.5,3c-2-0.5-3.9-1.5-5.5-3V14z" fill="#FFFFFF"/><path d="M96,14H26c-5.5,0-10-4.5-10-10v0h90v0C106,9.5,101.5,14,96,14z" fill="#BEBFCC"/><path d="M26,4H16c0,5.5,4.5,10,10,10h10C30.5,14,26,9.5,26,4z" fill="#FFFFFF"/><circle cx="91" cy="79" fill="#EDB77F" r="10"/><path d="M104,32.5H71c-3.6,0-6.5,2.9-6.5,6.5v3.5h-14v-27H96c6.3,0,11.5-5.2,11.5-11.5c0-0.8-0.7-1.5-1.5-1.5H16   c-0.8,0-1.5,0.7-1.5,1.5c0,6.3,5.2,11.5,11.5,11.5h5.5v27h-11V41c0-3.6-2.9-6.5-6.5-6.5H5c-1.4,0-2.5,1.1-2.5,2.5v34   c0,1.4,1.1,2.5,2.5,2.5h9c3.6,0,6.5-2.9,6.5-6.5v-1.5h40c-3.4,4.3-8.6,7-14.5,7H31c-3.6,0-6.5,2.9-6.5,6.5v35   c0,3.6,2.9,6.5,6.5,6.5h3.5v3.5c0,0.8,0.7,1.5,1.5,1.5s1.5-0.7,1.5-1.5v-3.5h75v3.5c0,0.8,0.7,1.5,1.5,1.5s1.5-0.7,1.5-1.5v-3.5   h3.5c3.6,0,6.5-2.9,6.5-6.5V54C125.5,42.1,115.9,32.5,104,32.5z M17.6,5.5h86.7c-0.7,4-4.2,7-8.4,7H49c0,0,0,0,0,0H33c0,0,0,0,0,0   h-7C21.8,12.5,18.3,9.5,17.6,5.5z M47.5,15.5v27.9c-1.8,1.6-4.1,2.5-6.5,2.5s-4.7-0.9-6.5-2.5V15.5H47.5z M17.5,67   c0,1.9-1.6,3.5-3.5,3.5H5.5v-33H14c1.9,0,3.5,1.6,3.5,3.5v3v20V67z M20.5,62.5v-17h11.7c0.1,0,0.1,0,0.2,0c2.4,2.1,5.4,3.3,8.6,3.3   c3.2,0,6.2-1.2,8.6-3.3c0,0,0,0,0,0h14.9V54c0,3.1-0.8,5.9-2.1,8.5H20.5z M122.5,114c0,1.9-1.6,3.5-3.5,3.5H31   c-1.9,0-3.5-1.6-3.5-3.5V79c0-1.9,1.6-3.5,3.5-3.5h15c7.9,0,14.7-4.2,18.5-10.6c0.1-0.1,0.2-0.2,0.2-0.4c1.8-3.1,2.8-6.7,2.8-10.6   V39c0-1.9,1.6-3.5,3.5-3.5h33c10.2,0,18.5,8.3,18.5,18.5V114z" fill="#454B54"/><g><path d="M73,80.5c-0.4,0-0.8-0.2-1.1-0.4c-0.3-0.3-0.4-0.7-0.4-1.1c0-0.4,0.2-0.8,0.4-1.1c0.6-0.6,1.6-0.6,2.1,0    c0.3,0.3,0.4,0.7,0.4,1.1c0,0.4-0.2,0.8-0.4,1.1C73.8,80.3,73.4,80.5,73,80.5z" fill="#454B54"/></g><g><path d="M91,62.5c-0.4,0-0.8-0.2-1.1-0.4c-0.3-0.3-0.4-0.7-0.4-1.1c0-0.4,0.2-0.8,0.4-1.1c0.5-0.5,1.6-0.6,2.1,0    c0.3,0.3,0.4,0.7,0.4,1.1c0,0.4-0.2,0.8-0.4,1.1C91.8,62.3,91.4,62.5,91,62.5z" fill="#454B54"/></g><path d="M91,67.5c-6.3,0-11.5,5.2-11.5,11.5S84.7,90.5,91,90.5s11.5-5.2,11.5-11.5S97.3,67.5,91,67.5z M91,87.5   c-4.2,0-7.6-3-8.4-7H91c0.8,0,1.5-0.7,1.5-1.5s-0.7-1.5-1.5-1.5h-8.4c0.7-4,4.2-7,8.4-7c4.7,0,8.5,3.8,8.5,8.5S95.7,87.5,91,87.5z" fill="#454B54"/></g></svg>